<?xml version="1.0" encoding="iso-8859-1"?>
<!-- Uploaded to: SVG Repo, www.svgrepo.com, Generator: SVG Repo Mixer Tools -->
<svg fill="#000000" version="1.1" id="Capa_1" xmlns="http://www.w3.org/2000/svg" xmlns:xlink="http://www.w3.org/1999/xlink" 
	 viewBox="0 0 490.001 490.001" xml:space="preserve">
<path d="M482.664,282.022c0-98.012-79.742-177.753-177.753-177.753H3.526v188.642h479.138V282.022z M429.051,187.701h-80.239
	c-31.789,0-57.656-25.86-57.656-57.645v-4.009h13.755C355.501,126.047,400.535,150.261,429.051,187.701z M25.304,271.132V126.047
	h244.075v4.009c0,43.79,35.634,79.423,79.434,79.423h94.144c9.841,18.651,16.021,39.521,17.553,61.653H25.304z"/>
<path d="M88.771,157.661l58.331,58.336l-15.397,15.398l-58.332-58.336L88.771,157.661z M166.301,173.059l58.331,58.336
	l15.398-15.398l-58.331-58.336L166.301,173.059z"/>
<path d="M60.272,321.174l18.353-11.717l11.623,18.194l-18.353,11.717L60.272,321.174z M151.727,339.369l18.354-11.717
	l-11.623-18.194l-18.354,11.717L151.727,339.369z M231.56,339.369l18.353-11.717l-11.623-18.194l-18.353,11.717L231.56,339.369z
	 M311.392,339.369l18.354-11.717l-11.623-18.194l-18.354,11.717L311.392,339.369z M391.225,339.369l18.353-11.717l-11.623-18.194
	l-18.353,11.717L391.225,339.369z"/>
<rect y="363.953" width="490.001" height="21.778"/>
</svg>